<svg width="75" height="15" viewBox="0 0 75 15" fill="none" xmlns="http://www.w3.org/2000/svg">
<path d="M6.82886 3V12.2788H5.64601L1.17676 5.12215V12.2788H0V3H1.17676L5.6643 10.1758V3H6.82886Z" fill="#1269DB"/>
<path d="M11.6491 12.4063C11.1898 12.4063 10.7732 12.3255 10.3992 12.1641C10.0293 11.9984 9.71021 11.7669 9.44194 11.4695C9.17772 11.1721 8.97448 10.8194 8.83222 10.4116C8.68995 10.0037 8.61881 9.55762 8.61881 9.07329V8.80563C8.61881 8.24482 8.69808 7.74562 8.8566 7.30802C9.01513 6.86617 9.23057 6.4923 9.50291 6.1864C9.77525 5.88051 10.0842 5.64896 10.4297 5.49177C10.7752 5.33457 11.1329 5.25597 11.5028 5.25597C11.9743 5.25597 12.3808 5.34095 12.7222 5.51089C13.0677 5.68083 13.3502 5.91875 13.5697 6.22464C13.7892 6.52629 13.9518 6.88317 14.0575 7.29527C14.1632 7.70313 14.216 8.14923 14.216 8.63356V9.16251H9.28951V8.20021H13.0881V8.11099C13.0718 7.8051 13.0108 7.5077 12.9051 7.2188C12.8035 6.9299 12.6409 6.69198 12.4174 6.50505C12.1938 6.31811 11.8889 6.22464 11.5028 6.22464C11.2467 6.22464 11.0109 6.282 10.7955 6.39671C10.5801 6.50717 10.3951 6.67286 10.2407 6.89379C10.0862 7.11471 9.9663 7.38449 9.88093 7.70313C9.79557 8.02177 9.75289 8.38927 9.75289 8.80563V9.07329C9.75289 9.40043 9.79557 9.70844 9.88093 9.99735C9.97036 10.282 10.0984 10.5327 10.2651 10.7493C10.4358 10.966 10.6411 11.136 10.8809 11.2592C11.1248 11.3824 11.4012 11.444 11.7101 11.444C12.1084 11.444 12.4458 11.359 12.7222 11.1891C12.9986 11.0191 13.2405 10.7918 13.4478 10.5072L14.1307 11.0743C13.9884 11.2995 13.8075 11.5141 13.588 11.718C13.3685 11.9219 13.0982 12.0876 12.7771 12.2151C12.46 12.3425 12.0841 12.4063 11.6491 12.4063Z" fill="#1269DB"/>
<path d="M16.4633 5.38343L17.9083 7.89432L19.3716 5.38343H20.6947L18.5363 8.78651L20.7618 12.2788H19.457L17.9327 9.69145L16.4084 12.2788H15.0975L17.3169 8.78651L15.1646 5.38343H16.4633Z" fill="#1269DB"/>
<path d="M24.826 5.38343V6.28837H21.2592V5.38343H24.826ZM22.4664 3.70738H23.5944V10.5709C23.5944 10.8046 23.6289 10.9809 23.698 11.0998C23.7671 11.2188 23.8566 11.2974 23.9663 11.3356C24.0761 11.3739 24.1939 11.393 24.3199 11.393C24.4134 11.393 24.511 11.3845 24.6126 11.3675C24.7183 11.3463 24.7976 11.3293 24.8504 11.3165L24.8565 12.2788C24.7671 12.3086 24.6492 12.3362 24.5029 12.3617C24.3606 12.3914 24.1878 12.4063 23.9846 12.4063C23.7082 12.4063 23.4541 12.3489 23.2225 12.2342C22.9908 12.1195 22.8058 11.9283 22.6676 11.6606C22.5335 11.3887 22.4664 11.0234 22.4664 10.5645V3.70738Z" fill="#1269DB"/>
<path d="M33.0276 8.63994H30.6558V7.63941H33.0276C33.4869 7.63941 33.8588 7.56293 34.1434 7.40998C34.4279 7.25704 34.6352 7.04461 34.7653 6.7727C34.8994 6.5008 34.9665 6.19065 34.9665 5.84227C34.9665 5.52363 34.8994 5.22411 34.7653 4.94371C34.6352 4.6633 34.4279 4.43813 34.1434 4.26819C33.8588 4.094 33.4869 4.0069 33.0276 4.0069H30.9302V12.2788H29.7534V3H33.0276C33.6983 3 34.2653 3.12108 34.7287 3.36325C35.1921 3.60542 35.5437 3.94105 35.7835 4.37015C36.0233 4.79501 36.1433 5.28147 36.1433 5.82953C36.1433 6.42432 36.0233 6.93202 35.7835 7.35263C35.5437 7.77323 35.1921 8.094 34.7287 8.31492C34.2653 8.5316 33.6983 8.63994 33.0276 8.63994Z" fill="#1269DB"/>
<path d="M41.4452 11.0998V7.55019C41.4452 7.27828 41.3924 7.04249 41.2867 6.8428C41.1851 6.63887 41.0306 6.48168 40.8233 6.37122C40.616 6.26075 40.3599 6.20552 40.055 6.20552C39.7705 6.20552 39.5205 6.25651 39.3051 6.35847C39.0937 6.46044 38.9271 6.59426 38.8051 6.75996C38.6872 6.92565 38.6283 7.10409 38.6283 7.29527H37.5003C37.5003 7.04886 37.5613 6.80457 37.6832 6.5624C37.8052 6.32023 37.98 6.10143 38.2076 5.906C38.4393 5.70632 38.7157 5.54912 39.0368 5.43441C39.362 5.31545 39.7238 5.25597 40.1221 5.25597C40.6018 5.25597 41.0245 5.34095 41.3903 5.51089C41.7602 5.68083 42.0488 5.93787 42.2561 6.282C42.4675 6.62188 42.5732 7.04886 42.5732 7.56293V10.7748C42.5732 11.0042 42.5915 11.2485 42.6281 11.5077C42.6687 11.7669 42.7276 11.9899 42.8049 12.1768V12.2788H41.6281C41.5712 12.1429 41.5265 11.9623 41.494 11.7371C41.4615 11.5077 41.4452 11.2953 41.4452 11.0998ZM41.6403 8.09825L41.6525 8.92671H40.5123C40.1912 8.92671 39.9046 8.95433 39.6526 9.00956C39.4006 9.06054 39.1892 9.13914 39.0185 9.24535C38.8478 9.35157 38.7177 9.4854 38.6283 9.64684C38.5389 9.80404 38.4942 9.98885 38.4942 10.2013C38.4942 10.418 38.5409 10.6155 38.6344 10.7939C38.7279 10.9724 38.8681 11.1147 39.0551 11.2209C39.2461 11.3229 39.4799 11.3739 39.7563 11.3739C40.1018 11.3739 40.4066 11.2974 40.6709 11.1445C40.9351 10.9915 41.1444 10.8046 41.2989 10.5836C41.4574 10.3627 41.5428 10.1482 41.5549 9.93999L42.0366 10.5072C42.0082 10.6856 41.9309 10.8832 41.8049 11.0998C41.6789 11.3165 41.5102 11.5247 41.2989 11.7244C41.0916 11.9198 40.8436 12.0834 40.555 12.2151C40.2705 12.3425 39.9494 12.4063 39.5916 12.4063C39.1445 12.4063 38.7523 12.3149 38.4149 12.1322C38.0816 11.9495 37.8214 11.7053 37.6344 11.3994C37.4515 11.0892 37.3601 10.743 37.3601 10.3606C37.3601 9.99097 37.4292 9.66596 37.5674 9.38556C37.7056 9.1009 37.9048 8.86511 38.1649 8.67817C38.4251 8.48699 38.738 8.34254 39.1039 8.24482C39.4697 8.14711 39.8782 8.09825 40.3294 8.09825H41.6403Z" fill="#1269DB"/>
<path d="M48.7897 5.38343H49.814V12.1322C49.814 12.7398 49.6961 13.2581 49.4604 13.6872C49.2246 14.1163 48.8954 14.4413 48.4726 14.6622C48.054 14.8874 47.5703 15 47.0215 15C46.7939 15 46.5256 14.9618 46.2167 14.8853C45.9118 14.8131 45.611 14.6877 45.3143 14.5093C45.0216 14.3351 44.7757 14.0993 44.5765 13.8019L45.168 13.1009C45.4444 13.4493 45.733 13.6915 46.0338 13.8274C46.3386 13.9634 46.6394 14.0313 46.9361 14.0313C47.2939 14.0313 47.6028 13.9612 47.8629 13.821C48.1231 13.6808 48.3243 13.4727 48.4665 13.1965C48.6129 12.9246 48.686 12.589 48.686 12.1896V6.90016L48.7897 5.38343ZM44.2473 8.90759V8.77377C44.2473 8.24695 44.3062 7.76899 44.4241 7.33988C44.546 6.90653 44.7188 6.53479 44.9424 6.22464C45.17 5.9145 45.4444 5.67658 45.7655 5.51089C46.0866 5.34095 46.4484 5.25597 46.8508 5.25597C47.2654 5.25597 47.6272 5.33245 47.9361 5.4854C48.2491 5.63409 48.5133 5.85289 48.7287 6.1418C48.9482 6.42645 49.121 6.77058 49.247 7.17419C49.373 7.5778 49.4604 8.03452 49.5092 8.54434V9.13064C49.4645 9.63622 49.3771 10.0908 49.247 10.4944C49.121 10.898 48.9482 11.2422 48.7287 11.5268C48.5133 11.8115 48.2491 12.0303 47.9361 12.1832C47.6231 12.3319 47.2573 12.4063 46.8386 12.4063C46.4443 12.4063 46.0866 12.3192 45.7655 12.145C45.4484 11.9708 45.1761 11.7265 44.9485 11.4121C44.7208 11.0977 44.546 10.7281 44.4241 10.3032C44.3062 9.87414 44.2473 9.40892 44.2473 8.90759ZM45.3753 8.77377V8.90759C45.3753 9.25173 45.4078 9.57462 45.4728 9.87626C45.5419 10.1779 45.6456 10.4434 45.7838 10.6729C45.926 10.9023 46.1069 11.0828 46.3264 11.2146C46.5459 11.342 46.8081 11.4057 47.113 11.4057C47.4869 11.4057 47.7959 11.3229 48.0397 11.1572C48.2836 10.9915 48.4767 10.7727 48.619 10.5008C48.7653 10.2289 48.8791 9.93362 48.9604 9.61498V8.07913C48.9157 7.84546 48.8466 7.62029 48.7531 7.40361C48.6637 7.18269 48.5458 6.98725 48.3995 6.81731C48.2572 6.64312 48.0804 6.50505 47.869 6.40308C47.6576 6.30112 47.4097 6.25013 47.1252 6.25013C46.8162 6.25013 46.55 6.31811 46.3264 6.45406C46.1069 6.58577 45.926 6.76845 45.7838 7.00212C45.6456 7.23155 45.5419 7.4992 45.4728 7.8051C45.4078 8.10674 45.3753 8.42963 45.3753 8.77377Z" fill="#1269DB"/>
<path d="M54.4331 12.4063C53.9738 12.4063 53.5571 12.3255 53.1832 12.1641C52.8133 11.9984 52.4942 11.7669 52.2259 11.4695C51.9617 11.1721 51.7584 10.8194 51.6162 10.4116C51.4739 10.0037 51.4028 9.55762 51.4028 9.07329V8.80563C51.4028 8.24482 51.482 7.74562 51.6406 7.30802C51.7991 6.86617 52.0145 6.4923 52.2869 6.1864C52.5592 5.88051 52.8681 5.64896 53.2136 5.49177C53.5591 5.33457 53.9169 5.25597 54.2867 5.25597C54.7583 5.25597 55.1647 5.34095 55.5062 5.51089C55.8517 5.68083 56.1342 5.91875 56.3537 6.22464C56.5732 6.52629 56.7358 6.88317 56.8415 7.29527C56.9472 7.70313 57 8.14923 57 8.63356V9.16251H52.0735V8.20021H55.872V8.11099C55.8558 7.8051 55.7948 7.5077 55.6891 7.2188C55.5875 6.9299 55.4249 6.69198 55.2013 6.50505C54.9778 6.31811 54.6729 6.22464 54.2867 6.22464C54.0307 6.22464 53.7949 6.282 53.5795 6.39671C53.364 6.50717 53.1791 6.67286 53.0246 6.89379C52.8702 7.11471 52.7503 7.38449 52.6649 7.70313C52.5795 8.02177 52.5369 8.38927 52.5369 8.80563V9.07329C52.5369 9.40043 52.5795 9.70844 52.6649 9.99735C52.7543 10.282 52.8824 10.5327 53.049 10.7493C53.2197 10.966 53.425 11.136 53.6648 11.2592C53.9087 11.3824 54.1851 11.444 54.4941 11.444C54.8924 11.444 55.2298 11.359 55.5062 11.1891C55.7826 11.0191 56.0244 10.7918 56.2318 10.5072L56.9146 11.0743C56.7724 11.2995 56.5915 11.5141 56.372 11.718C56.1525 11.9219 55.8822 12.0876 55.5611 12.2151C55.244 12.3425 54.868 12.4063 54.4331 12.4063Z" fill="#1269DB"/>
<path d="M67.3106 0.000240922C67.0556 0.000240922 66.8855 0.0867944 66.7155 0.259902C66.3755 0.606117 66.4605 1.12544 66.8005 1.47165L72.2409 6.49177C72.4109 6.66487 72.4959 6.83798 72.4959 7.01109C72.4959 7.1842 72.4109 7.3573 72.2409 7.53041L66.7155 12.2909C66.3755 12.6371 66.2905 13.1564 66.6305 13.5026C66.9705 13.8488 67.4806 13.9354 67.8206 13.5892L73.261 8.82872C73.771 8.39595 74.1111 7.70352 74.1111 7.01109C74.1111 6.31866 73.856 5.71278 73.346 5.19346L67.9056 0.173348C67.7356 0.0867941 67.4806 0.000240922 67.3106 0.000240922V0.000240922Z" fill="#1269DB"/>
</svg>
