<svg width="95" height="14" viewBox="0 0 95 14" fill="none" xmlns="http://www.w3.org/2000/svg">
<path d="M19.2362 8.23121H16.8919V7.3237H19.2362C19.6902 7.3237 20.0578 7.25434 20.3391 7.11561C20.6203 6.97688 20.8252 6.7842 20.9538 6.53757C21.0863 6.29094 21.1526 6.00963 21.1526 5.69364C21.1526 5.40462 21.0863 5.13295 20.9538 4.87861C20.8252 4.62428 20.6203 4.42004 20.3391 4.2659C20.0578 4.1079 19.6902 4.0289 19.2362 4.0289H17.1631V11.5318H16V3.11561H19.2362C19.8991 3.11561 20.4596 3.22543 20.9176 3.44509C21.3756 3.66474 21.7231 3.96917 21.9602 4.35838C22.1972 4.74374 22.3157 5.18497 22.3157 5.68208C22.3157 6.22158 22.1972 6.68208 21.9602 7.06358C21.7231 7.44509 21.3756 7.73603 20.9176 7.93642C20.4596 8.13295 19.8991 8.23121 19.2362 8.23121Z" fill="#1269DB"/>
<path d="M24.8985 6.26012V11.5318H23.7836V5.27746H24.8684L24.8985 6.26012ZM26.9355 5.24277L26.9294 6.23699C26.837 6.21773 26.7486 6.20617 26.6643 6.20231C26.5839 6.19461 26.4915 6.19075 26.387 6.19075C26.1299 6.19075 25.9029 6.22929 25.7061 6.30636C25.5092 6.38343 25.3425 6.49133 25.2059 6.63006C25.0693 6.76879 24.9608 6.93449 24.8804 7.12717C24.8041 7.31599 24.7539 7.52408 24.7298 7.75145L24.4164 7.92486C24.4164 7.54721 24.4546 7.19268 24.5309 6.86127C24.6112 6.52987 24.7338 6.23699 24.8985 5.98266C25.0632 5.72447 25.2721 5.52408 25.5253 5.3815C25.7824 5.23507 26.0877 5.16185 26.4413 5.16185C26.5216 5.16185 26.614 5.17148 26.7185 5.19075C26.823 5.20617 26.8953 5.22351 26.9355 5.24277Z" fill="#1269DB"/>
<path d="M30.7175 11.6474C30.2635 11.6474 29.8517 11.5742 29.4821 11.4277C29.1164 11.2775 28.8011 11.0674 28.5359 10.7977C28.2747 10.5279 28.0739 10.2081 27.9332 9.83815C27.7926 9.46821 27.7223 9.06358 27.7223 8.62428V8.3815C27.7223 7.87283 27.8007 7.42004 27.9574 7.02312C28.114 6.62235 28.327 6.28324 28.5962 6.00578C28.8653 5.72832 29.1707 5.5183 29.5122 5.37572C29.8537 5.23314 30.2072 5.16185 30.5728 5.16185C31.0389 5.16185 31.4407 5.23892 31.7781 5.39306C32.1196 5.54721 32.3989 5.76301 32.6158 6.04046C32.8328 6.31407 32.9935 6.63776 33.0979 7.01156C33.2024 7.3815 33.2546 7.78613 33.2546 8.22543V8.7052H28.3852V7.83237H32.1397V7.75145C32.1237 7.47399 32.0634 7.20424 31.9589 6.9422C31.8585 6.68015 31.6978 6.46435 31.4768 6.2948C31.2558 6.12524 30.9545 6.04046 30.5728 6.04046C30.3197 6.04046 30.0867 6.09249 29.8738 6.19653C29.6608 6.29672 29.478 6.44701 29.3254 6.6474C29.1727 6.84778 29.0542 7.09249 28.9698 7.3815C28.8854 7.67052 28.8432 8.00385 28.8432 8.3815V8.62428C28.8432 8.921 28.8854 9.20039 28.9698 9.46243C29.0582 9.72062 29.1847 9.94798 29.3495 10.1445C29.5182 10.341 29.7211 10.4952 29.9581 10.6069C30.1992 10.7187 30.4724 10.7746 30.7777 10.7746C31.1715 10.7746 31.5049 10.6975 31.7781 10.5434C32.0513 10.3892 32.2904 10.183 32.4953 9.92486L33.1703 10.4393C33.0296 10.6435 32.8509 10.8382 32.6339 11.0231C32.4169 11.2081 32.1498 11.3584 31.8324 11.474C31.519 11.5896 31.1474 11.6474 30.7175 11.6474Z" fill="#1269DB"/>
<path d="M36.6208 10.5665L38.4047 5.27746H39.5437L37.1994 11.5318H36.4521L36.6208 10.5665ZM35.1323 5.27746L36.9704 10.5954L37.0969 11.5318H36.3496L33.9873 5.27746H35.1323Z" fill="#1269DB"/>
<path d="M41.9938 5.27746V11.5318H40.8729V5.27746H41.9938ZM40.7885 3.6185C40.7885 3.44509 40.8428 3.29865 40.9513 3.17919C41.0638 3.05973 41.2285 3 41.4454 3C41.6584 3 41.8211 3.05973 41.9336 3.17919C42.0501 3.29865 42.1083 3.44509 42.1083 3.6185C42.1083 3.7842 42.0501 3.92678 41.9336 4.04624C41.8211 4.16185 41.6584 4.21965 41.4454 4.21965C41.2285 4.21965 41.0638 4.16185 40.9513 4.04624C40.8428 3.92678 40.7885 3.7842 40.7885 3.6185Z" fill="#1269DB"/>
<path d="M43.6546 8.47399V8.34104C43.6546 7.89017 43.7229 7.47206 43.8595 7.08671C43.9961 6.6975 44.1929 6.36031 44.45 6.07514C44.7072 5.78613 45.0185 5.56262 45.3842 5.40462C45.7498 5.24277 46.1596 5.16185 46.6136 5.16185C47.0716 5.16185 47.4834 5.24277 47.849 5.40462C48.2186 5.56262 48.532 5.78613 48.7891 6.07514C49.0503 6.36031 49.2491 6.6975 49.3857 7.08671C49.5223 7.47206 49.5906 7.89017 49.5906 8.34104V8.47399C49.5906 8.92486 49.5223 9.34297 49.3857 9.72832C49.2491 10.1137 49.0503 10.4509 48.7891 10.7399C48.532 11.025 48.2206 11.2486 47.855 11.4104C47.4934 11.5684 47.0836 11.6474 46.6256 11.6474C46.1676 11.6474 45.7558 11.5684 45.3902 11.4104C45.0246 11.2486 44.7112 11.025 44.45 10.7399C44.1929 10.4509 43.9961 10.1137 43.8595 9.72832C43.7229 9.34297 43.6546 8.92486 43.6546 8.47399ZM44.7695 8.34104V8.47399C44.7695 8.78613 44.8076 9.08092 44.884 9.35838C44.9603 9.63198 45.0748 9.87476 45.2275 10.0867C45.3842 10.2987 45.579 10.4663 45.812 10.5896C46.0451 10.7091 46.3162 10.7688 46.6256 10.7688C46.9309 10.7688 47.1981 10.7091 47.4271 10.5896C47.6601 10.4663 47.853 10.2987 48.0057 10.0867C48.1583 9.87476 48.2728 9.63198 48.3492 9.35838C48.4295 9.08092 48.4697 8.78613 48.4697 8.47399V8.34104C48.4697 8.03276 48.4295 7.74181 48.3492 7.46821C48.2728 7.19075 48.1563 6.94605 47.9996 6.7341C47.847 6.5183 47.6541 6.34875 47.4211 6.22543C47.1921 6.10212 46.9229 6.04046 46.6136 6.04046C46.3082 6.04046 46.039 6.10212 45.806 6.22543C45.577 6.34875 45.3842 6.5183 45.2275 6.7341C45.0748 6.94605 44.9603 7.19075 44.884 7.46821C44.8076 7.74181 44.7695 8.03276 44.7695 8.34104Z" fill="#1269DB"/>
<path d="M55.1444 10.0867V5.27746H56.2654V11.5318H55.1987L55.1444 10.0867ZM55.3554 8.76879L55.8194 8.75723C55.8194 9.17341 55.7732 9.55877 55.6808 9.91329C55.5924 10.264 55.4478 10.5684 55.2469 10.8266C55.046 11.0848 54.7829 11.2871 54.4574 11.4335C54.132 11.5761 53.7363 11.6474 53.2702 11.6474C52.9528 11.6474 52.6615 11.6031 52.3964 11.5145C52.1352 11.4258 51.9102 11.289 51.7214 11.104C51.5326 10.9191 51.3859 10.6782 51.2815 10.3815C51.181 10.0848 51.1308 9.72832 51.1308 9.31214V5.27746H52.2457V9.3237C52.2457 9.60501 52.2778 9.83815 52.3421 10.0231C52.4104 10.2042 52.5008 10.3487 52.6133 10.4566C52.7298 10.5607 52.8584 10.6339 52.999 10.6763C53.1437 10.7187 53.2923 10.7399 53.445 10.7399C53.9191 10.7399 54.2947 10.6532 54.5719 10.4798C54.8491 10.3025 55.048 10.0655 55.1685 9.76879C55.2931 9.46821 55.3554 9.13487 55.3554 8.76879Z" fill="#1269DB"/>
<path d="M61.9276 9.87283C61.9276 9.71869 61.8915 9.57611 61.8192 9.44509C61.7509 9.31021 61.6082 9.18882 61.3913 9.08092C61.1784 8.96917 60.8569 8.87283 60.4271 8.79191C60.0655 8.71869 59.738 8.63198 59.4447 8.53179C59.1555 8.4316 58.9084 8.31021 58.7035 8.16763C58.5026 8.02505 58.3479 7.85742 58.2394 7.66474C58.131 7.47206 58.0767 7.24663 58.0767 6.98844C58.0767 6.74181 58.133 6.50867 58.2455 6.28902C58.362 6.06936 58.5247 5.87476 58.7336 5.7052C58.9466 5.53565 59.2017 5.4027 59.499 5.30636C59.7963 5.21002 60.1277 5.16185 60.4933 5.16185C61.0156 5.16185 61.4616 5.25048 61.8312 5.42775C62.2008 5.60501 62.4841 5.842 62.681 6.13873C62.8778 6.4316 62.9763 6.75723 62.9763 7.11561H61.8614C61.8614 6.9422 61.8071 6.77457 61.6986 6.61272C61.5942 6.44701 61.4395 6.31021 61.2346 6.20231C61.0337 6.09441 60.7866 6.04046 60.4933 6.04046C60.184 6.04046 59.9329 6.08671 59.74 6.17919C59.5512 6.26782 59.4126 6.3815 59.3242 6.52023C59.2398 6.65896 59.1977 6.8054 59.1977 6.95954C59.1977 7.07514 59.2177 7.17919 59.2579 7.27168C59.3021 7.36031 59.3785 7.44316 59.4869 7.52023C59.5954 7.59345 59.7481 7.66281 59.9449 7.72832C60.1418 7.79383 60.3929 7.85934 60.6982 7.92486C61.2326 8.04046 61.6725 8.17919 62.018 8.34104C62.3636 8.50289 62.6207 8.70135 62.7894 8.93642C62.9582 9.17148 63.0425 9.45665 63.0425 9.79191C63.0425 10.0655 62.9823 10.316 62.8618 10.5434C62.7452 10.7707 62.5745 10.9672 62.3495 11.1329C62.1285 11.2948 61.8634 11.422 61.554 11.5145C61.2487 11.6031 60.9052 11.6474 60.5235 11.6474C59.949 11.6474 59.4628 11.5491 59.0651 11.3526C58.6673 11.1561 58.366 10.9017 58.1611 10.5896C57.9562 10.2775 57.8538 9.94798 57.8538 9.60116H58.9747C58.9907 9.89403 59.0791 10.1272 59.2398 10.3006C59.4005 10.4701 59.5974 10.5915 59.8304 10.6647C60.0635 10.7341 60.2945 10.7688 60.5235 10.7688C60.8288 10.7688 61.0839 10.7303 61.2888 10.6532C61.4978 10.5761 61.6565 10.4701 61.7649 10.3353C61.8734 10.2004 61.9276 10.0462 61.9276 9.87283Z" fill="#1269DB"/>
<path d="M71.3057 8.23121H68.9614V7.3237H71.3057C71.7597 7.3237 72.1273 7.25434 72.4085 7.11561C72.6898 6.97688 72.8947 6.7842 73.0232 6.53757C73.1558 6.29094 73.2221 6.00963 73.2221 5.69364C73.2221 5.40462 73.1558 5.13295 73.0232 4.87861C72.8947 4.62428 72.6898 4.42004 72.4085 4.2659C72.1273 4.1079 71.7597 4.0289 71.3057 4.0289H69.2326V11.5318H68.0695V3.11561H71.3057C71.9686 3.11561 72.5291 3.22543 72.9871 3.44509C73.4451 3.66474 73.7926 3.96917 74.0296 4.35838C74.2667 4.74374 74.3852 5.18497 74.3852 5.68208C74.3852 6.22158 74.2667 6.68208 74.0296 7.06358C73.7926 7.44509 73.4451 7.73603 72.9871 7.93642C72.5291 8.13295 71.9686 8.23121 71.3057 8.23121Z" fill="#1269DB"/>
<path d="M79.6256 10.4624V7.24277C79.6256 6.99615 79.5734 6.78227 79.4689 6.60116C79.3685 6.41618 79.2158 6.2736 79.0109 6.17341C78.806 6.07322 78.5529 6.02312 78.2516 6.02312C77.9704 6.02312 77.7233 6.06936 77.5103 6.16185C77.3014 6.25434 77.1367 6.37572 77.0162 6.52601C76.8997 6.6763 76.8414 6.83815 76.8414 7.01156H75.7265C75.7265 6.78805 75.7868 6.56647 75.9073 6.34682C76.0278 6.12717 76.2006 5.92871 76.4256 5.75145C76.6546 5.57033 76.9278 5.42775 77.2452 5.3237C77.5666 5.2158 77.9242 5.16185 78.3179 5.16185C78.792 5.16185 79.2098 5.23892 79.5714 5.39306C79.937 5.54721 80.2223 5.78035 80.4272 6.09249C80.6361 6.40077 80.7405 6.78805 80.7405 7.25434V10.1676C80.7405 10.3757 80.7586 10.5973 80.7948 10.8324C80.8349 11.0674 80.8932 11.2697 80.9695 11.4393V11.5318H79.8064C79.7502 11.4085 79.706 11.2447 79.6738 11.0405C79.6417 10.8324 79.6256 10.6397 79.6256 10.4624ZM79.8185 7.73988L79.8305 8.49133H78.7036C78.3862 8.49133 78.1029 8.51638 77.8539 8.56647C77.6048 8.61272 77.3958 8.68401 77.2271 8.78035C77.0584 8.87669 76.9298 8.99807 76.8414 9.14451C76.753 9.28709 76.7088 9.45472 76.7088 9.6474C76.7088 9.84393 76.755 10.0231 76.8474 10.185C76.9398 10.3468 77.0784 10.4759 77.2633 10.5723C77.4521 10.6647 77.6831 10.711 77.9563 10.711C78.2978 10.711 78.5991 10.6416 78.8603 10.5029C79.1214 10.3642 79.3283 10.1946 79.481 9.99422C79.6377 9.79383 79.7221 9.59923 79.7341 9.4104L80.2102 9.92486C80.1821 10.0867 80.1057 10.2659 79.9812 10.4624C79.8567 10.659 79.6899 10.8478 79.481 11.0289C79.2761 11.2062 79.031 11.3545 78.7458 11.474C78.4645 11.5896 78.1471 11.6474 77.7936 11.6474C77.3516 11.6474 76.9639 11.5645 76.6305 11.3988C76.301 11.2331 76.0439 11.0116 75.8591 10.7341C75.6783 10.4528 75.5879 10.1387 75.5879 9.79191C75.5879 9.45665 75.6562 9.16185 75.7928 8.90751C75.9294 8.64933 76.1263 8.43545 76.3834 8.2659C76.6405 8.09249 76.9499 7.96146 77.3115 7.87283C77.6731 7.7842 78.0768 7.73988 78.5228 7.73988H79.8185Z" fill="#1269DB"/>
<path d="M86.8849 5.27746H87.8974V11.3988C87.8974 11.9499 87.7809 12.42 87.5479 12.8092C87.3148 13.1985 86.9894 13.4933 86.5716 13.6936C86.1577 13.8979 85.6796 14 85.1373 14C84.9123 14 84.6471 13.9653 84.3418 13.896C84.0404 13.8304 83.7431 13.7168 83.4499 13.5549C83.1606 13.3969 82.9175 13.183 82.7207 12.9133L83.3052 12.2775C83.5784 12.5934 83.8637 12.8131 84.161 12.9364C84.4623 13.0597 84.7596 13.1214 85.0529 13.1214C85.4064 13.1214 85.7118 13.0578 85.9689 12.9306C86.226 12.8035 86.4249 12.6146 86.5655 12.3642C86.7102 12.1175 86.7825 11.8131 86.7825 11.4509V6.65318L86.8849 5.27746ZM82.3952 8.47399V8.3526C82.3952 7.87476 82.4535 7.44123 82.57 7.05202C82.6905 6.65896 82.8613 6.32177 83.0822 6.04046C83.3072 5.75915 83.5784 5.54335 83.8958 5.39306C84.2132 5.23892 84.5708 5.16185 84.9685 5.16185C85.3783 5.16185 85.7359 5.23121 86.0412 5.36994C86.3506 5.50482 86.6117 5.70328 86.8247 5.96532C87.0416 6.22351 87.2124 6.53565 87.3369 6.90173C87.4615 7.26782 87.5479 7.68208 87.5961 8.14451V8.6763C87.5519 9.13487 87.4655 9.54721 87.3369 9.91329C87.2124 10.2794 87.0416 10.5915 86.8247 10.8497C86.6117 11.1079 86.3506 11.3064 86.0412 11.4451C85.7319 11.58 85.3703 11.6474 84.9565 11.6474C84.5668 11.6474 84.2132 11.5684 83.8958 11.4104C83.5824 11.2524 83.3133 11.0308 83.0883 10.7457C82.8633 10.4605 82.6905 10.1252 82.57 9.73988C82.4535 9.35067 82.3952 8.92871 82.3952 8.47399ZM83.5101 8.3526V8.47399C83.5101 8.78613 83.5423 9.079 83.6065 9.3526C83.6748 9.6262 83.7773 9.86705 83.9139 10.0751C84.0545 10.2832 84.2333 10.447 84.4502 10.5665C84.6672 10.6821 84.9263 10.7399 85.2277 10.7399C85.5973 10.7399 85.9026 10.6647 86.1437 10.5145C86.3847 10.3642 86.5756 10.1657 86.7162 9.91908C86.8608 9.67245 86.9733 9.40462 87.0537 9.11561V7.72254C87.0095 7.5106 86.9412 7.30636 86.8488 7.10983C86.7604 6.90944 86.6439 6.73218 86.4992 6.57803C86.3586 6.42004 86.1839 6.2948 85.9749 6.20231C85.766 6.10983 85.521 6.06358 85.2397 6.06358C84.9344 6.06358 84.6712 6.12524 84.4502 6.24855C84.2333 6.36802 84.0545 6.53372 83.9139 6.74566C83.7773 6.95376 83.6748 7.19653 83.6065 7.47399C83.5423 7.74759 83.5101 8.04046 83.5101 8.3526Z" fill="#1269DB"/>
<path d="M92.4629 11.6474C92.0089 11.6474 91.5971 11.5742 91.2274 11.4277C90.8618 11.2775 90.5464 11.0674 90.2813 10.7977C90.0201 10.5279 89.8192 10.2081 89.6786 9.83815C89.538 9.46821 89.4677 9.06358 89.4677 8.62428V8.3815C89.4677 7.87283 89.546 7.42004 89.7027 7.02312C89.8594 6.62235 90.0724 6.28324 90.3415 6.00578C90.6107 5.72832 90.9161 5.5183 91.2576 5.37572C91.5991 5.23314 91.9526 5.16185 92.3182 5.16185C92.7843 5.16185 93.186 5.23892 93.5235 5.39306C93.865 5.54721 94.1442 5.76301 94.3612 6.04046C94.5781 6.31407 94.7389 6.63776 94.8433 7.01156C94.9478 7.3815 95 7.78613 95 8.22543V8.7052H90.1306V7.83237H93.8851V7.75145C93.869 7.47399 93.8088 7.20424 93.7043 6.9422C93.6039 6.68015 93.4432 6.46435 93.2222 6.2948C93.0012 6.12524 92.6999 6.04046 92.3182 6.04046C92.0651 6.04046 91.8321 6.09249 91.6192 6.19653C91.4062 6.29672 91.2234 6.44701 91.0707 6.6474C90.9181 6.84778 90.7996 7.09249 90.7152 7.3815C90.6308 7.67052 90.5886 8.00385 90.5886 8.3815V8.62428C90.5886 8.921 90.6308 9.20039 90.7152 9.46243C90.8036 9.72062 90.9301 9.94798 91.0948 10.1445C91.2636 10.341 91.4665 10.4952 91.7035 10.6069C91.9446 10.7187 92.2178 10.7746 92.5231 10.7746C92.9169 10.7746 93.2503 10.6975 93.5235 10.5434C93.7967 10.3892 94.0358 10.183 94.2407 9.92486L94.9156 10.4393C94.775 10.6435 94.5962 10.8382 94.3793 11.0231C94.1623 11.2081 93.8951 11.3584 93.5778 11.474C93.2644 11.5896 92.8927 11.6474 92.4629 11.6474Z" fill="#1269DB"/>
<path d="M6.59878 13.4006C6.84625 13.4006 7.01123 13.3166 7.17621 13.1486C7.50617 12.8127 7.42368 12.3087 7.09372 11.9727L1.81434 7.10121C1.64936 6.93323 1.56687 6.76525 1.56687 6.59726C1.56687 6.42928 1.64936 6.26129 1.81434 6.09331L7.17621 1.47376C7.50617 1.13779 7.58866 0.633836 7.2587 0.297869C6.92874 -0.0380989 6.4338 -0.122091 6.10383 0.213877L0.824462 4.83343C0.329521 5.25339 -0.000440536 5.92533 -0.000440536 6.59726C-0.000440536 7.2692 0.24703 7.85714 0.741971 8.36109L6.02134 13.2326C6.18632 13.3166 6.4338 13.4006 6.59878 13.4006V13.4006Z" fill="#1269DB"/>
</svg>
